# xmcd
#
# Track frame offsets:
#	150
#	15873
#	33278
#	50438
#	70270
#	87281
#	109605
#	129963
#	145883
#	164769
#	177921
#	197486
#
# Disc length: 2894 seconds
#
# Revision: 0
# Processed by: cddbd v1.5.2PL0 Copyright (c) Steve Scherf et al.
# Submitted via: EasyCDDAExtractor 12.0.6 .1
#
DISCID=970b4c0c
DTITLE=覚悟次第 - ワン・モア・ベスト Vol.3 覚悟次第
DYEAR=2009
DGENRE=
TTITLE0=覚悟次第
TTITLE1=粋な別れ
TTITLE2=君恋し
TTITLE3=ジェラス・ムーン
TTITLE4=四つのお願い
TTITLE5=Candle In The Wind
TTITLE6=運命の主人公
TTITLE7=星の流れに
TTITLE8=零下52度
TTITLE9=ヴァケーション
TTITLE10=うしろ姿
TTITLE11=チェビ-燕-
EXTD=
EXTT0=
EXTT1=
EXTT2=
EXTT3=
EXTT4=
EXTT5=
EXTT6=
EXTT7=
EXTT8=
EXTT9=
EXTT10=
EXTT11=
PLAYORDER=
